<svg xmlns="http://www.w3.org/2000/svg" viewBox="0 0 1200 630" width="1200" height="630">
  <defs>
    <linearGradient id="bg" x1="0" y1="0" x2="1" y2="1">
      <stop offset="0%" stop-color="#0F172A"/>
      <stop offset="100%" stop-color="#1E1B4B"/>
    </linearGradient>
    <linearGradient id="brand" x1="0" y1="0" x2="1" y2="0">
      <stop offset="0%" stop-color="#2563EB"/>
      <stop offset="55%" stop-color="#7C3AED"/>
      <stop offset="100%" stop-color="#06B6D4"/>
    </linearGradient>
    <radialGradient id="glow">
      <stop offset="0%" stop-color="#7C3AED" stop-opacity=".55"/>
      <stop offset="100%" stop-color="#7C3AED" stop-opacity="0"/>
    </radialGradient>
  </defs>
  <rect width="1200" height="630" fill="url(#bg)"/>
  <circle cx="960" cy="170" r="320" fill="url(#glow)"/>
  <rect x="80" y="86" width="56" height="56" rx="16" fill="url(#brand)"/>
  <g fill="none" stroke="#fff" stroke-width="3" stroke-linecap="round" transform="translate(94,100) scale(0.9)">
    <path d="M11 21 21 11"/>
    <path d="M13.5 8.5 16 6a6 6 0 0 1 8.5 8.5L22 17"/>
    <path d="M18.5 23.5 16 26a6 6 0 0 1-8.5-8.5L10 15"/>
  </g>
  <text x="152" y="126" fill="#F8FAFC" font-family="Poppins, sans-serif" font-size="30" font-weight="700">INZRA</text>
  <text x="80" y="286" fill="#F8FAFC" font-family="Poppins, sans-serif" font-size="66" font-weight="700">Buy high-authority backlinks</text>
  <text x="80" y="364" fill="url(#brand)" font-family="Poppins, sans-serif" font-size="66" font-weight="700">that actually rank.</text>
  <text x="80" y="432" fill="#94A3B8" font-family="Inter, sans-serif" font-size="27">8,412 vetted publishers. Verified metrics. 12-month replacement guarantee.</text>
  <g font-family="'JetBrains Mono', monospace" font-size="22" font-weight="700">
    <rect x="80" y="486" width="150" height="52" rx="14" fill="#ffffff14" stroke="#ffffff28"/>
    <text x="106" y="519" fill="#F8FAFC">DR 78</text>
    <rect x="248" y="486" width="196" height="52" rx="14" fill="#ffffff14" stroke="#ffffff28"/>
    <text x="274" y="519" fill="#F8FAFC">Spam 1%</text>
    <rect x="462" y="486" width="234" height="52" rx="14" fill="#ffffff14" stroke="#ffffff28"/>
    <text x="488" y="519" fill="#22C55E">+312% organic</text>
  </g>
</svg>
